<svg version="1.1" id="Sk3l44B9z" xmlns="http://www.w3.org/2000/svg" xmlns:xlink="http://www.w3.org/1999/xlink" x="0px" y="0px" width="40px" height="35px" viewBox="0 0 40 35" enable-background="new 0 0 40 35">
    <style type="text/css">
        @-webkit-keyframes BJ-2lNEScG_Animation{0%{opacity: 1;}26.67%{opacity: 0;}100%{opacity: 0;}}@keyframes BJ-2lNEScG_Animation{0%{opacity: 1;}26.67%{opacity: 0;}100%{opacity: 0;}}@-webkit-keyframes SkfhlENB5z_SyJZPES5z_Animation{0%{-webkit-transform: rotate(0deg);transform: rotate(0deg);}26.67%{-webkit-transform: rotate(-40deg);transform: rotate(-40deg);}100%{-webkit-transform: rotate(-40deg);transform: rotate(-40deg);}}@keyframes SkfhlENB5z_SyJZPES5z_Animation{0%{-webkit-transform: rotate(0deg);transform: rotate(0deg);}26.67%{-webkit-transform: rotate(-40deg);transform: rotate(-40deg);}100%{-webkit-transform: rotate(-40deg);transform: rotate(-40deg);}}@-webkit-keyframes Hkghe4VH9z_r1cxvNrqz_Animation{0%{-webkit-transform: rotate(0deg);transform: rotate(0deg);}26.67%{-webkit-transform: rotate(40deg);transform: rotate(40deg);}100%{-webkit-transform: rotate(40deg);transform: rotate(40deg);}}@keyframes Hkghe4VH9z_r1cxvNrqz_Animation{0%{-webkit-transform: rotate(0deg);transform: rotate(0deg);}26.67%{-webkit-transform: rotate(40deg);transform: rotate(40deg);}100%{-webkit-transform: rotate(40deg);transform: rotate(40deg);}}#Sk3l44B9z *{-webkit-animation-duration: 3s;animation-duration: 3s;-webkit-animation-timing-function: cubic-bezier(0, 0, 1, 1);animation-timing-function: cubic-bezier(0, 0, 1, 1);transform-box: fill-box;-webkit-transform-origin: 50% 50%;transform-origin: 50% 50%;}#Hkghe4VH9z{fill: #6c9c5a;}#BJ-2lNEScG{fill: #6c9c5a;-webkit-transform-origin: undefined;transform-origin: undefined;-webkit-animation-name: BJ-2lNEScG_Animation;animation-name: BJ-2lNEScG_Animation;}#SkfhlENB5z{fill: #6c9c5a;}#Hkghe4VH9z_HkFXVNBcz{-webkit-transform-origin: undefined;transform-origin: undefined;}#Hkghe4VH9z_SJfdVVSqf{-webkit-transform-origin: undefined;transform-origin: undefined;}#Hkghe4VH9z_Sksc44rcf{-webkit-transform-origin: undefined;transform-origin: undefined;}#Hkghe4VH9z_BJVpENBcf{-webkit-transform-origin: undefined;transform-origin: undefined;}#Hkghe4VH9z_ByFZSNHqz{-webkit-transform-origin: 0% 50%;transform-origin: 0% 50%;}#SkfhlENB5z_By0NSEBqG{-webkit-transform-origin: 0% 50%;transform-origin: 0% 50%;}#Hkghe4VH9z_B1q3rNH9z{-webkit-transform-origin: 0% 50%;transform-origin: 0% 50%;}#Hkghe4VH9z_Hye0S4rqM{-webkit-transform-origin: 0% 50%;transform-origin: 0% 50%;}#Hkghe4VH9z_B1PABNrqf{-webkit-transform-origin: 0% 50%;transform-origin: 0% 50%;}#Hkghe4VH9z_SkebINS9M{-webkit-transform-origin: 0% 50%;transform-origin: 0% 50%;}#SkfhlENB5z_SyeHIVrcM{-webkit-transform-origin: 0% 50%;transform-origin: 0% 50%;}#SkfhlENB5z_SyaEUEB9z{-webkit-transform-origin: 0% 50%;transform-origin: 0% 50%;}#Hkghe4VH9z_r1cxvNrqz{-webkit-animation-name: Hkghe4VH9z_r1cxvNrqz_Animation;animation-name: Hkghe4VH9z_r1cxvNrqz_Animation;-webkit-transform-origin: 0% 50%;transform-origin: 0% 50%;}#SkfhlENB5z_SyJZPES5z{-webkit-animation-name: SkfhlENB5z_SyJZPES5z_Animation;animation-name: SkfhlENB5z_SyJZPES5z_Animation;-webkit-transform-origin: 0% 50%;transform-origin: 0% 50%;}
    </style>
    <g id="Hkghe4VH9z_r1cxvNrqz" data-animator-group="true" data-animator-type="1">
        <path d="M40,2.5C40,3.881,38.881,5,37.5,5h-35C1.119,5,0,3.881,0,2.5l0,0C0,1.119,1.119,0,2.5,0h35&#10;&#9;C38.881,0,40,1.119,40,2.5L40,2.5z" id="Hkghe4VH9z"/>
    </g>
    <path d="M40,17.5c0,1.381-1.119,2.5-2.5,2.5h-35C1.119,20,0,18.881,0,17.5l0,0C0,16.119,1.119,15,2.5,15h35&#10;&#9;C38.881,15,40,16.119,40,17.5L40,17.5z" id="BJ-2lNEScG"/>
    <g id="SkfhlENB5z_SyJZPES5z" data-animator-group="true" data-animator-type="1">
        <path d="M40,32.5c0,1.381-1.119,2.5-2.5,2.5h-35C1.119,35,0,33.881,0,32.5l0,0C0,31.119,1.119,30,2.5,30h35&#10;&#9;C38.881,30,40,31.119,40,32.5L40,32.5z" id="SkfhlENB5z"/>
    </g>
</svg>